<svg width="212" height="102" viewBox="0 0 212 102" fill="none" xmlns="http://www.w3.org/2000/svg">
<g filter="url(#filter0_i_28_141)">
<path d="M47.5117 54.2832H50.4316C50.373 55.2402 50.1094 56.0898 49.6406 56.832C49.1784 57.5742 48.5306 58.1536 47.6973 58.5703C46.8704 58.987 45.8743 59.1953 44.709 59.1953C43.7975 59.1953 42.9805 59.0391 42.2578 58.7266C41.5352 58.4076 40.9167 57.9518 40.4023 57.3594C39.8945 56.7669 39.5072 56.0508 39.2402 55.2109C38.9733 54.3711 38.8398 53.4303 38.8398 52.3887V51.4023C38.8398 50.3607 38.9766 49.4199 39.25 48.5801C39.5299 47.7337 39.9271 47.0143 40.4414 46.4219C40.9622 45.8294 41.584 45.3737 42.3066 45.0547C43.0293 44.7357 43.8366 44.5762 44.7285 44.5762C45.9134 44.5762 46.9128 44.791 47.7266 45.2207C48.5469 45.6504 49.1816 46.2428 49.6309 46.998C50.0866 47.7533 50.36 48.6126 50.4512 49.5762H47.5215C47.4889 49.0033 47.375 48.5182 47.1797 48.1211C46.9844 47.7174 46.6882 47.4147 46.291 47.2129C45.9004 47.0046 45.3796 46.9004 44.7285 46.9004C44.2402 46.9004 43.8138 46.9915 43.4492 47.1738C43.0846 47.3561 42.7786 47.6328 42.5312 48.0039C42.2839 48.375 42.0983 48.8438 41.9746 49.4102C41.8574 49.9701 41.7988 50.6276 41.7988 51.3828V52.3887C41.7988 53.1243 41.8542 53.7721 41.9648 54.332C42.0755 54.8854 42.2448 55.3542 42.4727 55.7383C42.707 56.1159 43.0065 56.4023 43.3711 56.5977C43.7422 56.7865 44.1882 56.8809 44.709 56.8809C45.321 56.8809 45.8255 56.7832 46.2227 56.5879C46.6198 56.3926 46.9225 56.1029 47.1309 55.7188C47.3457 55.3346 47.4727 54.8561 47.5117 54.2832ZM58.1367 47.2129L54.2695 59H51.1543L56.4375 44.7812H58.4199L58.1367 47.2129ZM61.3496 59L57.4727 47.2129L57.1602 44.7812H59.1621L64.4746 59H61.3496ZM61.1738 53.707V56.002H53.6641V53.707H61.1738ZM74.9336 56.7148V59H67.7754V56.7148H74.9336ZM68.7227 44.7812V59H65.793V44.7812H68.7227ZM86.1543 56.7148V59H78.5859V56.7148H86.1543ZM79.543 44.7812V59H76.6133V44.7812H79.543ZM85.168 50.5723V52.7988H78.5859V50.5723H85.168ZM86.1445 44.7812V47.0762H78.5859V44.7812H86.1445ZM99.4355 44.7812V59H96.5059L90.793 49.4688V59H87.8633V44.7812H90.793L96.5156 54.3223V44.7812H99.4355ZM106.35 59H103.254L103.273 56.7148H106.35C107.118 56.7148 107.766 56.5423 108.293 56.1973C108.82 55.8457 109.217 55.3346 109.484 54.6641C109.758 53.9935 109.895 53.1829 109.895 52.2324V51.5391C109.895 50.8099 109.816 50.1686 109.66 49.6152C109.51 49.0618 109.286 48.5964 108.986 48.2188C108.687 47.8411 108.319 47.5579 107.883 47.3691C107.447 47.1738 106.945 47.0762 106.379 47.0762H103.195V44.7812H106.379C107.329 44.7812 108.199 44.944 108.986 45.2695C109.781 45.5885 110.467 46.0475 111.047 46.6465C111.626 47.2454 112.072 47.9616 112.385 48.7949C112.704 49.6217 112.863 50.543 112.863 51.5586V52.2324C112.863 53.2415 112.704 54.1628 112.385 54.9961C112.072 55.8294 111.626 56.5456 111.047 57.1445C110.474 57.737 109.787 58.196 108.986 58.5215C108.192 58.8405 107.313 59 106.35 59ZM104.914 44.7812V59H101.984V44.7812H104.914ZM120.559 47.2129L116.691 59H113.576L118.859 44.7812H120.842L120.559 47.2129ZM123.771 59L119.895 47.2129L119.582 44.7812H121.584L126.896 59H123.771ZM123.596 53.707V56.002H116.086V53.707H123.596ZM118.908 43.9805L120.822 40.9727H123.879L121.193 43.9805H118.908ZM128.215 44.7812H133.518C134.605 44.7812 135.539 44.944 136.32 45.2695C137.108 45.5951 137.714 46.0768 138.137 46.7148C138.56 47.3529 138.771 48.1374 138.771 49.0684C138.771 49.8301 138.641 50.4844 138.381 51.0312C138.127 51.5716 137.766 52.0241 137.297 52.3887C136.835 52.7467 136.291 53.0332 135.666 53.248L134.738 53.7363H130.129L130.109 51.4512H133.537C134.051 51.4512 134.478 51.36 134.816 51.1777C135.155 50.9954 135.409 50.7415 135.578 50.416C135.754 50.0905 135.842 49.7129 135.842 49.2832C135.842 48.8275 135.757 48.4336 135.588 48.1016C135.419 47.7695 135.161 47.5156 134.816 47.3398C134.471 47.1641 134.038 47.0762 133.518 47.0762H131.145V59H128.215V44.7812ZM136.164 59L132.922 52.6621L136.018 52.6426L139.299 58.8633V59H136.164ZM144.143 44.7812V59H141.223V44.7812H144.143ZM158.566 51.5586V52.2324C158.566 53.3132 158.42 54.2832 158.127 55.1426C157.834 56.002 157.421 56.7344 156.887 57.3398C156.353 57.9388 155.715 58.3978 154.973 58.7168C154.237 59.0358 153.42 59.1953 152.521 59.1953C151.63 59.1953 150.812 59.0358 150.07 58.7168C149.335 58.3978 148.697 57.9388 148.156 57.3398C147.616 56.7344 147.196 56.002 146.896 55.1426C146.604 54.2832 146.457 53.3132 146.457 52.2324V51.5586C146.457 50.4714 146.604 49.5013 146.896 48.6484C147.189 47.7891 147.603 47.0566 148.137 46.4512C148.677 45.8457 149.315 45.3835 150.051 45.0645C150.793 44.7454 151.61 44.5859 152.502 44.5859C153.4 44.5859 154.217 44.7454 154.953 45.0645C155.695 45.3835 156.333 45.8457 156.867 46.4512C157.408 47.0566 157.824 47.7891 158.117 48.6484C158.417 49.5013 158.566 50.4714 158.566 51.5586ZM155.607 52.2324V51.5391C155.607 50.7839 155.539 50.1198 155.402 49.5469C155.266 48.974 155.064 48.4922 154.797 48.1016C154.53 47.7109 154.204 47.418 153.82 47.2227C153.436 47.0208 152.997 46.9199 152.502 46.9199C152.007 46.9199 151.568 47.0208 151.184 47.2227C150.806 47.418 150.484 47.7109 150.217 48.1016C149.956 48.4922 149.758 48.974 149.621 49.5469C149.484 50.1198 149.416 50.7839 149.416 51.5391V52.2324C149.416 52.9811 149.484 53.6452 149.621 54.2246C149.758 54.7975 149.96 55.2826 150.227 55.6797C150.493 56.0703 150.819 56.3665 151.203 56.5684C151.587 56.7702 152.027 56.8711 152.521 56.8711C153.016 56.8711 153.456 56.7702 153.84 56.5684C154.224 56.3665 154.546 56.0703 154.807 55.6797C155.067 55.2826 155.266 54.7975 155.402 54.2246C155.539 53.6452 155.607 52.9811 155.607 52.2324Z" fill="white"/>
</g>
<path d="M56.2031 10.025L61.1719 11.8219V13.9391L54.4219 11.0797V9.57968L56.2031 10.025ZM61.1719 8.55624L56.1953 10.3844L54.4219 10.8062V9.30624L61.1719 6.44687V8.55624ZM67.625 10.0641H64.7031L64.6875 8.45468H67.1406C67.5729 8.45468 67.9271 8.39999 68.2031 8.29062C68.4792 8.17604 68.6849 8.01197 68.8203 7.79843C68.9609 7.57968 69.0312 7.31406 69.0312 7.00156C69.0312 6.64739 68.9635 6.36093 68.8281 6.14218C68.6979 5.92343 68.4922 5.76458 68.2109 5.66562C67.9349 5.56666 67.5781 5.51718 67.1406 5.51718H65.5156V15.0562H63.1719V3.68124H67.1406C67.8021 3.68124 68.3932 3.74374 68.9141 3.86874C69.4401 3.99374 69.8854 4.18385 70.25 4.43906C70.6146 4.69426 70.8932 5.01718 71.0859 5.40781C71.2786 5.79322 71.375 6.25156 71.375 6.78281C71.375 7.25156 71.2682 7.68385 71.0547 8.07968C70.8464 8.47551 70.5156 8.79843 70.0625 9.04843C69.6146 9.29843 69.0286 9.43645 68.3047 9.46249L67.625 10.0641ZM67.5234 15.0562H64.0625L64.9766 13.2281H67.5234C67.9349 13.2281 68.2708 13.163 68.5312 13.0328C68.7917 12.8974 68.9844 12.7151 69.1094 12.4859C69.2344 12.2568 69.2969 11.9937 69.2969 11.6969C69.2969 11.3635 69.2396 11.0745 69.125 10.8297C69.0156 10.5849 68.8385 10.3974 68.5938 10.2672C68.349 10.1318 68.026 10.0641 67.625 10.0641H65.3672L65.3828 8.45468H68.1953L68.7344 9.08749C69.4271 9.07708 69.9844 9.19947 70.4062 9.45468C70.8333 9.70468 71.1432 10.0302 71.3359 10.4312C71.5339 10.8323 71.6328 11.262 71.6328 11.7203C71.6328 12.4495 71.474 13.0641 71.1562 13.5641C70.8385 14.0588 70.3724 14.4312 69.7578 14.6812C69.1484 14.9312 68.4036 15.0562 67.5234 15.0562ZM79.3125 12.0797C79.3125 11.8766 79.2812 11.6943 79.2188 11.5328C79.1615 11.3661 79.0521 11.2151 78.8906 11.0797C78.7292 10.9391 78.5026 10.801 78.2109 10.6656C77.9193 10.5302 77.5417 10.3896 77.0781 10.2437C76.5625 10.0771 76.0729 9.88958 75.6094 9.68124C75.151 9.47291 74.7448 9.23072 74.3906 8.95468C74.0417 8.67343 73.7656 8.34791 73.5625 7.97812C73.3646 7.60833 73.2656 7.17864 73.2656 6.68906C73.2656 6.2151 73.3698 5.78541 73.5781 5.39999C73.7865 5.00937 74.0781 4.67604 74.4531 4.39999C74.8281 4.11874 75.2708 3.9026 75.7812 3.75156C76.2969 3.60051 76.862 3.52499 77.4766 3.52499C78.3151 3.52499 79.0469 3.67604 79.6719 3.97812C80.2969 4.2802 80.7812 4.69426 81.125 5.22031C81.474 5.74635 81.6484 6.34791 81.6484 7.02499H79.3203C79.3203 6.69166 79.25 6.39999 79.1094 6.14999C78.974 5.89479 78.7656 5.69426 78.4844 5.54843C78.2083 5.4026 77.8594 5.32968 77.4375 5.32968C77.0312 5.32968 76.6927 5.39218 76.4219 5.51718C76.151 5.63697 75.9479 5.80104 75.8125 6.00937C75.6771 6.21249 75.6094 6.44166 75.6094 6.69687C75.6094 6.88958 75.6562 7.06406 75.75 7.22031C75.849 7.37656 75.9948 7.52239 76.1875 7.65781C76.3802 7.79322 76.6172 7.92083 76.8984 8.04062C77.1797 8.16041 77.5052 8.2776 77.875 8.39218C78.4948 8.57968 79.0391 8.79062 79.5078 9.02499C79.9818 9.25937 80.3776 9.52239 80.6953 9.81406C81.013 10.1057 81.2526 10.4365 81.4141 10.8062C81.5755 11.176 81.6562 11.5953 81.6562 12.0641C81.6562 12.5588 81.5599 13.0016 81.3672 13.3922C81.1745 13.7828 80.8958 14.1135 80.5312 14.3844C80.1667 14.6552 79.7318 14.8609 79.2266 15.0016C78.7214 15.1422 78.1562 15.2125 77.5312 15.2125C76.9688 15.2125 76.4141 15.1396 75.8672 14.9937C75.3203 14.8427 74.8229 14.6161 74.375 14.3141C73.9323 14.012 73.5781 13.6266 73.3125 13.1578C73.0469 12.6891 72.9141 12.1344 72.9141 11.4937H75.2656C75.2656 11.8479 75.3203 12.1474 75.4297 12.3922C75.5391 12.637 75.6927 12.8349 75.8906 12.9859C76.0938 13.137 76.3333 13.2463 76.6094 13.3141C76.8906 13.3818 77.1979 13.4156 77.5312 13.4156C77.9375 13.4156 78.2708 13.3583 78.5312 13.2437C78.7969 13.1292 78.9922 12.9703 79.1172 12.7672C79.2474 12.5641 79.3125 12.3349 79.3125 12.0797ZM88.1719 10.3375L83.1641 8.54843V6.44687L89.9688 9.30624V10.8141L88.1719 10.3375ZM83.1641 11.8375L88.1797 10.0094L89.9688 9.57968V11.0797L83.1641 13.9391V11.8375Z" fill="white"/>
<path d="M99.9297 11.0016H97.0312V9.17343H99.9297C100.378 9.17343 100.742 9.10051 101.023 8.95468C101.305 8.80364 101.51 8.59531 101.641 8.32968C101.771 8.06406 101.836 7.76458 101.836 7.43124C101.836 7.0927 101.771 6.7776 101.641 6.48593C101.51 6.19426 101.305 5.95989 101.023 5.78281C100.742 5.60572 100.378 5.51718 99.9297 5.51718H97.8438V15.0562H95.5V3.68124H99.9297C100.82 3.68124 101.583 3.8427 102.219 4.16562C102.859 4.48333 103.349 4.92343 103.688 5.48593C104.026 6.04843 104.195 6.69166 104.195 7.41562C104.195 8.14999 104.026 8.78541 103.688 9.32187C103.349 9.85833 102.859 10.2724 102.219 10.5641C101.583 10.8557 100.82 11.0016 99.9297 11.0016ZM107.922 8.44687V15.0562H105.672V6.60312H107.789L107.922 8.44687ZM110.469 6.54843L110.43 8.63437C110.32 8.61874 110.188 8.60572 110.031 8.59531C109.88 8.57968 109.742 8.57187 109.617 8.57187C109.299 8.57187 109.023 8.61354 108.789 8.69687C108.56 8.77499 108.367 8.89218 108.211 9.04843C108.06 9.20468 107.945 9.39479 107.867 9.61874C107.794 9.8427 107.753 10.0979 107.742 10.3844L107.289 10.2437C107.289 9.69687 107.344 9.19426 107.453 8.73593C107.562 8.27239 107.721 7.86874 107.93 7.52499C108.143 7.18124 108.404 6.91562 108.711 6.72812C109.018 6.54062 109.37 6.44687 109.766 6.44687C109.891 6.44687 110.018 6.45729 110.148 6.47812C110.279 6.49374 110.385 6.51718 110.469 6.54843ZM110.938 10.9156V10.7516C110.938 10.1318 111.026 9.56145 111.203 9.04062C111.38 8.51458 111.638 8.05885 111.977 7.67343C112.315 7.28801 112.732 6.98854 113.227 6.77499C113.721 6.55624 114.289 6.44687 114.93 6.44687C115.57 6.44687 116.141 6.55624 116.641 6.77499C117.141 6.98854 117.56 7.28801 117.898 7.67343C118.242 8.05885 118.503 8.51458 118.68 9.04062C118.857 9.56145 118.945 10.1318 118.945 10.7516V10.9156C118.945 11.5302 118.857 12.1005 118.68 12.6266C118.503 13.1474 118.242 13.6031 117.898 13.9937C117.56 14.3792 117.143 14.6786 116.648 14.8922C116.154 15.1057 115.586 15.2125 114.945 15.2125C114.305 15.2125 113.734 15.1057 113.234 14.8922C112.74 14.6786 112.32 14.3792 111.977 13.9937C111.638 13.6031 111.38 13.1474 111.203 12.6266C111.026 12.1005 110.938 11.5302 110.938 10.9156ZM113.188 10.7516V10.9156C113.188 11.2698 113.219 11.6005 113.281 11.9078C113.344 12.2151 113.443 12.4859 113.578 12.7203C113.719 12.9495 113.901 13.1292 114.125 13.2594C114.349 13.3896 114.622 13.4547 114.945 13.4547C115.258 13.4547 115.526 13.3896 115.75 13.2594C115.974 13.1292 116.154 12.9495 116.289 12.7203C116.424 12.4859 116.523 12.2151 116.586 11.9078C116.654 11.6005 116.688 11.2698 116.688 10.9156V10.7516C116.688 10.4078 116.654 10.0849 116.586 9.78281C116.523 9.47551 116.422 9.20468 116.281 8.97031C116.146 8.73072 115.966 8.54322 115.742 8.40781C115.518 8.27239 115.247 8.20468 114.93 8.20468C114.612 8.20468 114.341 8.27239 114.117 8.40781C113.898 8.54322 113.719 8.73072 113.578 8.97031C113.443 9.20468 113.344 9.47551 113.281 9.78281C113.219 10.0849 113.188 10.4078 113.188 10.7516ZM120.453 6.60312H122.711V15.5641C122.711 16.1891 122.596 16.7177 122.367 17.15C122.138 17.5823 121.807 17.9104 121.375 18.1344C120.943 18.3583 120.419 18.4703 119.805 18.4703C119.612 18.4703 119.424 18.4599 119.242 18.4391C119.055 18.4182 118.862 18.3844 118.664 18.3375L118.672 16.6109C118.797 16.6318 118.919 16.6474 119.039 16.6578C119.154 16.6734 119.271 16.6812 119.391 16.6812C119.625 16.6812 119.82 16.6422 119.977 16.5641C120.133 16.4859 120.25 16.3635 120.328 16.1969C120.411 16.0354 120.453 15.8245 120.453 15.5641V6.60312ZM120.273 4.39999C120.273 4.07187 120.388 3.80104 120.617 3.58749C120.852 3.37395 121.159 3.26718 121.539 3.26718C121.924 3.26718 122.232 3.37395 122.461 3.58749C122.69 3.80104 122.805 4.07187 122.805 4.39999C122.805 4.72812 122.69 4.99895 122.461 5.21249C122.232 5.42604 121.924 5.53281 121.539 5.53281C121.159 5.53281 120.852 5.42604 120.617 5.21249C120.388 4.99895 120.273 4.72812 120.273 4.39999ZM128.391 15.2125C127.734 15.2125 127.146 15.1083 126.625 14.9C126.104 14.6865 125.661 14.3922 125.297 14.0172C124.938 13.6422 124.661 13.2073 124.469 12.7125C124.276 12.2125 124.18 11.6812 124.18 11.1187V10.8062C124.18 10.1656 124.271 9.57968 124.453 9.04843C124.635 8.51718 124.896 8.05624 125.234 7.66562C125.578 7.27499 125.995 6.97551 126.484 6.76718C126.974 6.55364 127.526 6.44687 128.141 6.44687C128.74 6.44687 129.271 6.54583 129.734 6.74374C130.198 6.94166 130.586 7.22291 130.898 7.58749C131.216 7.95208 131.456 8.38958 131.617 8.89999C131.779 9.4052 131.859 9.9677 131.859 10.5875V11.525H125.141V10.025H129.648V9.85312C129.648 9.54062 129.591 9.26197 129.477 9.01718C129.367 8.76718 129.201 8.56926 128.977 8.42343C128.753 8.2776 128.466 8.20468 128.117 8.20468C127.82 8.20468 127.565 8.26979 127.352 8.39999C127.138 8.5302 126.964 8.71249 126.828 8.94687C126.698 9.18124 126.599 9.45729 126.531 9.77499C126.469 10.0875 126.438 10.4312 126.438 10.8062V11.1187C126.438 11.4573 126.484 11.7698 126.578 12.0562C126.677 12.3427 126.815 12.5901 126.992 12.7984C127.174 13.0068 127.393 13.1682 127.648 13.2828C127.909 13.3974 128.203 13.4547 128.531 13.4547C128.938 13.4547 129.315 13.3766 129.664 13.2203C130.018 13.0588 130.323 12.8167 130.578 12.4937L131.672 13.6812C131.495 13.9365 131.253 14.1812 130.945 14.4156C130.643 14.65 130.279 14.8427 129.852 14.9937C129.424 15.1396 128.938 15.2125 128.391 15.2125ZM136.633 13.4547C136.909 13.4547 137.154 13.4026 137.367 13.2984C137.581 13.1891 137.747 13.038 137.867 12.8453C137.992 12.6474 138.057 12.4156 138.062 12.15H140.18C140.174 12.7437 140.016 13.2724 139.703 13.7359C139.391 14.1943 138.971 14.5562 138.445 14.8219C137.919 15.0823 137.331 15.2125 136.68 15.2125C136.023 15.2125 135.451 15.1031 134.961 14.8844C134.477 14.6656 134.073 14.3635 133.75 13.9781C133.427 13.5875 133.185 13.1344 133.023 12.6187C132.862 12.0979 132.781 11.5406 132.781 10.9469V10.7203C132.781 10.1213 132.862 9.56406 133.023 9.04843C133.185 8.5276 133.427 8.07447 133.75 7.68906C134.073 7.29843 134.477 6.99374 134.961 6.77499C135.445 6.55624 136.013 6.44687 136.664 6.44687C137.357 6.44687 137.964 6.57968 138.484 6.84531C139.01 7.11093 139.422 7.49114 139.719 7.98593C140.021 8.47551 140.174 9.05624 140.18 9.72812H138.062C138.057 9.44687 137.997 9.19166 137.883 8.96249C137.773 8.73333 137.612 8.55104 137.398 8.41562C137.19 8.27499 136.932 8.20468 136.625 8.20468C136.297 8.20468 136.029 8.27499 135.82 8.41562C135.612 8.55104 135.451 8.73854 135.336 8.97812C135.221 9.21249 135.141 9.48072 135.094 9.78281C135.052 10.0797 135.031 10.3922 135.031 10.7203V10.9469C135.031 11.275 135.052 11.5901 135.094 11.8922C135.135 12.1943 135.214 12.4625 135.328 12.6969C135.448 12.9312 135.612 13.1161 135.82 13.2516C136.029 13.387 136.299 13.4547 136.633 13.4547ZM145.625 6.60312V8.19687H140.703V6.60312H145.625ZM141.922 4.51718H144.172V12.5094C144.172 12.7542 144.203 12.9417 144.266 13.0719C144.333 13.2021 144.432 13.2932 144.562 13.3453C144.693 13.3922 144.857 13.4156 145.055 13.4156C145.195 13.4156 145.32 13.4104 145.43 13.4C145.544 13.3844 145.641 13.3687 145.719 13.3531L145.727 15.0094C145.534 15.0719 145.326 15.1213 145.102 15.1578C144.878 15.1943 144.63 15.2125 144.359 15.2125C143.865 15.2125 143.432 15.1318 143.062 14.9703C142.698 14.8036 142.417 14.538 142.219 14.1734C142.021 13.8088 141.922 13.3297 141.922 12.7359V4.51718Z" fill="#10C5FE"/>
<g filter="url(#filter1_i_28_141)">
<path d="M9.51172 82.2832H12.4316C12.373 83.2402 12.1094 84.0898 11.6406 84.832C11.1784 85.5742 10.5306 86.1536 9.69727 86.5703C8.87044 86.987 7.87435 87.1953 6.70898 87.1953C5.79753 87.1953 4.98047 87.0391 4.25781 86.7266C3.53516 86.4076 2.91667 85.9518 2.40234 85.3594C1.89453 84.7669 1.50716 84.0508 1.24023 83.2109C0.973307 82.3711 0.839844 81.4303 0.839844 80.3887V79.4023C0.839844 78.3607 0.976562 77.4199 1.25 76.5801C1.52995 75.7337 1.92708 75.0143 2.44141 74.4219C2.96224 73.8294 3.58398 73.3737 4.30664 73.0547C5.0293 72.7357 5.83659 72.5762 6.72852 72.5762C7.91341 72.5762 8.91276 72.791 9.72656 73.2207C10.5469 73.6504 11.1816 74.2428 11.6309 74.998C12.0866 75.7533 12.36 76.6126 12.4512 77.5762H9.52148C9.48893 77.0033 9.375 76.5182 9.17969 76.1211C8.98438 75.7174 8.68815 75.4147 8.29102 75.2129C7.90039 75.0046 7.37956 74.9004 6.72852 74.9004C6.24023 74.9004 5.8138 74.9915 5.44922 75.1738C5.08464 75.3561 4.77865 75.6328 4.53125 76.0039C4.28385 76.375 4.09831 76.8438 3.97461 77.4102C3.85742 77.9701 3.79883 78.6276 3.79883 79.3828V80.3887C3.79883 81.1243 3.85417 81.7721 3.96484 82.332C4.07552 82.8854 4.24479 83.3542 4.47266 83.7383C4.70703 84.1159 5.00651 84.4023 5.37109 84.5977C5.74219 84.7865 6.18815 84.8809 6.70898 84.8809C7.32096 84.8809 7.82552 84.7832 8.22266 84.5879C8.61979 84.3926 8.92253 84.1029 9.13086 83.7188C9.3457 83.3346 9.47266 82.8561 9.51172 82.2832ZM26.0352 79.5586V80.2324C26.0352 81.3132 25.8887 82.2832 25.5957 83.1426C25.3027 84.002 24.8893 84.7344 24.3555 85.3398C23.8216 85.9388 23.1836 86.3978 22.4414 86.7168C21.7057 87.0358 20.8887 87.1953 19.9902 87.1953C19.0983 87.1953 18.2812 87.0358 17.5391 86.7168C16.8034 86.3978 16.1654 85.9388 15.625 85.3398C15.0846 84.7344 14.6647 84.002 14.3652 83.1426C14.0723 82.2832 13.9258 81.3132 13.9258 80.2324V79.5586C13.9258 78.4714 14.0723 77.5013 14.3652 76.6484C14.6582 75.7891 15.0716 75.0566 15.6055 74.4512C16.1458 73.8457 16.7839 73.3835 17.5195 73.0645C18.2617 72.7454 19.0788 72.5859 19.9707 72.5859C20.8691 72.5859 21.6862 72.7454 22.4219 73.0645C23.1641 73.3835 23.8021 73.8457 24.3359 74.4512C24.8763 75.0566 25.293 75.7891 25.5859 76.6484C25.8854 77.5013 26.0352 78.4714 26.0352 79.5586ZM23.0762 80.2324V79.5391C23.0762 78.7839 23.0078 78.1198 22.8711 77.5469C22.7344 76.974 22.5326 76.4922 22.2656 76.1016C21.9987 75.7109 21.6732 75.418 21.2891 75.2227C20.9049 75.0208 20.4655 74.9199 19.9707 74.9199C19.4759 74.9199 19.0365 75.0208 18.6523 75.2227C18.2747 75.418 17.9525 75.7109 17.6855 76.1016C17.4251 76.4922 17.2266 76.974 17.0898 77.5469C16.9531 78.1198 16.8848 78.7839 16.8848 79.5391V80.2324C16.8848 80.9811 16.9531 81.6452 17.0898 82.2246C17.2266 82.7975 17.4284 83.2826 17.6953 83.6797C17.9622 84.0703 18.2878 84.3665 18.6719 84.5684C19.056 84.7702 19.4954 84.8711 19.9902 84.8711C20.485 84.8711 20.9245 84.7702 21.3086 84.5684C21.6927 84.3665 22.015 84.0703 22.2754 83.6797C22.5358 83.2826 22.7344 82.7975 22.8711 82.2246C23.0078 81.6452 23.0762 80.9811 23.0762 80.2324ZM33.6816 81.9316H30.0586V79.6465H33.6816C34.2415 79.6465 34.6973 79.5553 35.0488 79.373C35.4004 79.1842 35.6576 78.9238 35.8203 78.5918C35.9831 78.2598 36.0645 77.8854 36.0645 77.4688C36.0645 77.0456 35.9831 76.6517 35.8203 76.2871C35.6576 75.9225 35.4004 75.6296 35.0488 75.4082C34.6973 75.1868 34.2415 75.0762 33.6816 75.0762H31.0742V87H28.1445V72.7812H33.6816C34.7949 72.7812 35.7487 72.9831 36.543 73.3867C37.3438 73.7839 37.9557 74.334 38.3789 75.0371C38.8021 75.7402 39.0137 76.5443 39.0137 77.4492C39.0137 78.3672 38.8021 79.1615 38.3789 79.832C37.9557 80.5026 37.3438 81.0202 36.543 81.3848C35.7487 81.7493 34.7949 81.9316 33.6816 81.9316ZM45.1953 75.2129L41.3281 87H38.2129L43.4961 72.7812H45.4785L45.1953 75.2129ZM48.4082 87L44.5312 75.2129L44.2188 72.7812H46.2207L51.5332 87H48.4082ZM48.2324 81.707V84.002H40.7227V81.707H48.2324ZM62.1973 87H59.1016L59.1211 84.7148H62.1973C62.9655 84.7148 63.6133 84.5423 64.1406 84.1973C64.668 83.8457 65.0651 83.3346 65.332 82.6641C65.6055 81.9935 65.7422 81.1829 65.7422 80.2324V79.5391C65.7422 78.8099 65.6641 78.1686 65.5078 77.6152C65.3581 77.0618 65.1335 76.5964 64.834 76.2188C64.5345 75.8411 64.1667 75.5579 63.7305 75.3691C63.2943 75.1738 62.793 75.0762 62.2266 75.0762H59.043V72.7812H62.2266C63.1771 72.7812 64.0462 72.944 64.834 73.2695C65.6283 73.5885 66.3151 74.0475 66.8945 74.6465C67.474 75.2454 67.9199 75.9616 68.2324 76.7949C68.5514 77.6217 68.7109 78.543 68.7109 79.5586V80.2324C68.7109 81.2415 68.5514 82.1628 68.2324 82.9961C67.9199 83.8294 67.474 84.5456 66.8945 85.1445C66.3216 85.737 65.6348 86.196 64.834 86.5215C64.0397 86.8405 63.1608 87 62.1973 87ZM60.7617 72.7812V87H57.832V72.7812H60.7617ZM82.5195 79.5586V80.2324C82.5195 81.3132 82.373 82.2832 82.0801 83.1426C81.7871 84.002 81.3737 84.7344 80.8398 85.3398C80.306 85.9388 79.668 86.3978 78.9258 86.7168C78.1901 87.0358 77.373 87.1953 76.4746 87.1953C75.5827 87.1953 74.7656 87.0358 74.0234 86.7168C73.2878 86.3978 72.6497 85.9388 72.1094 85.3398C71.569 84.7344 71.1491 84.002 70.8496 83.1426C70.5566 82.2832 70.4102 81.3132 70.4102 80.2324V79.5586C70.4102 78.4714 70.5566 77.5013 70.8496 76.6484C71.1426 75.7891 71.556 75.0566 72.0898 74.4512C72.6302 73.8457 73.2682 73.3835 74.0039 73.0645C74.7461 72.7454 75.5632 72.5859 76.4551 72.5859C77.3535 72.5859 78.1706 72.7454 78.9062 73.0645C79.6484 73.3835 80.2865 73.8457 80.8203 74.4512C81.3607 75.0566 81.7773 75.7891 82.0703 76.6484C82.3698 77.5013 82.5195 78.4714 82.5195 79.5586ZM79.5605 80.2324V79.5391C79.5605 78.7839 79.4922 78.1198 79.3555 77.5469C79.2188 76.974 79.0169 76.4922 78.75 76.1016C78.4831 75.7109 78.1576 75.418 77.7734 75.2227C77.3893 75.0208 76.9499 74.9199 76.4551 74.9199C75.9603 74.9199 75.5208 75.0208 75.1367 75.2227C74.7591 75.418 74.4368 75.7109 74.1699 76.1016C73.9095 76.4922 73.7109 76.974 73.5742 77.5469C73.4375 78.1198 73.3691 78.7839 73.3691 79.5391V80.2324C73.3691 80.9811 73.4375 81.6452 73.5742 82.2246C73.7109 82.7975 73.9128 83.2826 74.1797 83.6797C74.4466 84.0703 74.7721 84.3665 75.1562 84.5684C75.5404 84.7702 75.9798 84.8711 76.4746 84.8711C76.9694 84.8711 77.4089 84.7702 77.793 84.5684C78.1771 84.3665 78.4993 84.0703 78.7598 83.6797C79.0202 83.2826 79.2188 82.7975 79.3555 82.2246C79.4922 81.6452 79.5605 80.9811 79.5605 80.2324ZM101.182 72.7812V87H98.252L92.5391 77.4688V87H89.6094V72.7812H92.5391L98.2617 82.3223V72.7812H101.182ZM115.41 79.5586V80.2324C115.41 81.3132 115.264 82.2832 114.971 83.1426C114.678 84.002 114.264 84.7344 113.73 85.3398C113.197 85.9388 112.559 86.3978 111.816 86.7168C111.081 87.0358 110.264 87.1953 109.365 87.1953C108.473 87.1953 107.656 87.0358 106.914 86.7168C106.178 86.3978 105.54 85.9388 105 85.3398C104.46 84.7344 104.04 84.002 103.74 83.1426C103.447 82.2832 103.301 81.3132 103.301 80.2324V79.5586C103.301 78.4714 103.447 77.5013 103.74 76.6484C104.033 75.7891 104.447 75.0566 104.98 74.4512C105.521 73.8457 106.159 73.3835 106.895 73.0645C107.637 72.7454 108.454 72.5859 109.346 72.5859C110.244 72.5859 111.061 72.7454 111.797 73.0645C112.539 73.3835 113.177 73.8457 113.711 74.4512C114.251 75.0566 114.668 75.7891 114.961 76.6484C115.26 77.5013 115.41 78.4714 115.41 79.5586ZM112.451 80.2324V79.5391C112.451 78.7839 112.383 78.1198 112.246 77.5469C112.109 76.974 111.908 76.4922 111.641 76.1016C111.374 75.7109 111.048 75.418 110.664 75.2227C110.28 75.0208 109.84 74.9199 109.346 74.9199C108.851 74.9199 108.411 75.0208 108.027 75.2227C107.65 75.418 107.327 75.7109 107.061 76.1016C106.8 76.4922 106.602 76.974 106.465 77.5469C106.328 78.1198 106.26 78.7839 106.26 79.5391V80.2324C106.26 80.9811 106.328 81.6452 106.465 82.2246C106.602 82.7975 106.803 83.2826 107.07 83.6797C107.337 84.0703 107.663 84.3665 108.047 84.5684C108.431 84.7702 108.87 84.8711 109.365 84.8711C109.86 84.8711 110.299 84.7702 110.684 84.5684C111.068 84.3665 111.39 84.0703 111.65 83.6797C111.911 83.2826 112.109 82.7975 112.246 82.2246C112.383 81.6452 112.451 80.9811 112.451 80.2324ZM117.52 72.7812H122.822C123.91 72.7812 124.844 72.944 125.625 73.2695C126.413 73.5951 127.018 74.0768 127.441 74.7148C127.865 75.3529 128.076 76.1374 128.076 77.0684C128.076 77.8301 127.946 78.4844 127.686 79.0312C127.432 79.5716 127.07 80.0241 126.602 80.3887C126.139 80.7467 125.596 81.0332 124.971 81.248L124.043 81.7363H119.434L119.414 79.4512H122.842C123.356 79.4512 123.783 79.36 124.121 79.1777C124.46 78.9954 124.714 78.7415 124.883 78.416C125.059 78.0905 125.146 77.7129 125.146 77.2832C125.146 76.8275 125.062 76.4336 124.893 76.1016C124.723 75.7695 124.466 75.5156 124.121 75.3398C123.776 75.1641 123.343 75.0762 122.822 75.0762H120.449V87H117.52V72.7812ZM125.469 87L122.227 80.6621L125.322 80.6426L128.604 86.8633V87H125.469ZM134.697 87H131.602L131.621 84.7148H134.697C135.465 84.7148 136.113 84.5423 136.641 84.1973C137.168 83.8457 137.565 83.3346 137.832 82.6641C138.105 81.9935 138.242 81.1829 138.242 80.2324V79.5391C138.242 78.8099 138.164 78.1686 138.008 77.6152C137.858 77.0618 137.633 76.5964 137.334 76.2188C137.035 75.8411 136.667 75.5579 136.23 75.3691C135.794 75.1738 135.293 75.0762 134.727 75.0762H131.543V72.7812H134.727C135.677 72.7812 136.546 72.944 137.334 73.2695C138.128 73.5885 138.815 74.0475 139.395 74.6465C139.974 75.2454 140.42 75.9616 140.732 76.7949C141.051 77.6217 141.211 78.543 141.211 79.5586V80.2324C141.211 81.2415 141.051 82.1628 140.732 82.9961C140.42 83.8294 139.974 84.5456 139.395 85.1445C138.822 85.737 138.135 86.196 137.334 86.5215C136.54 86.8405 135.661 87 134.697 87ZM133.262 72.7812V87H130.332V72.7812H133.262ZM152.881 84.7148V87H145.312V84.7148H152.881ZM146.27 72.7812V87H143.34V72.7812H146.27ZM151.895 78.5723V80.7988H145.312V78.5723H151.895ZM152.871 72.7812V75.0762H145.312V72.7812H152.871ZM161.992 83.2793C161.992 83.0254 161.953 82.7975 161.875 82.5957C161.803 82.3874 161.667 82.1986 161.465 82.0293C161.263 81.8535 160.98 81.681 160.615 81.5117C160.251 81.3424 159.779 81.1667 159.199 80.9844C158.555 80.776 157.943 80.5417 157.363 80.2812C156.79 80.0208 156.283 79.7181 155.84 79.373C155.404 79.0215 155.059 78.6146 154.805 78.1523C154.557 77.6901 154.434 77.153 154.434 76.541C154.434 75.9486 154.564 75.4115 154.824 74.9297C155.085 74.4414 155.449 74.0247 155.918 73.6797C156.387 73.3281 156.94 73.0579 157.578 72.8691C158.223 72.6803 158.929 72.5859 159.697 72.5859C160.745 72.5859 161.66 72.7747 162.441 73.1523C163.223 73.5299 163.828 74.0475 164.258 74.7051C164.694 75.3626 164.912 76.1146 164.912 76.9609H162.002C162.002 76.5443 161.914 76.1797 161.738 75.8672C161.569 75.5482 161.309 75.2975 160.957 75.1152C160.612 74.9329 160.176 74.8418 159.648 74.8418C159.141 74.8418 158.717 74.9199 158.379 75.0762C158.04 75.2259 157.786 75.431 157.617 75.6914C157.448 75.9453 157.363 76.2318 157.363 76.5508C157.363 76.7917 157.422 77.0098 157.539 77.2051C157.663 77.4004 157.845 77.5827 158.086 77.752C158.327 77.9212 158.623 78.0807 158.975 78.2305C159.326 78.3802 159.733 78.5267 160.195 78.6699C160.97 78.9043 161.65 79.168 162.236 79.4609C162.829 79.7539 163.324 80.0827 163.721 80.4473C164.118 80.8118 164.417 81.2253 164.619 81.6875C164.821 82.1497 164.922 82.6738 164.922 83.2598C164.922 83.8783 164.801 84.4316 164.561 84.9199C164.32 85.4082 163.971 85.8216 163.516 86.1602C163.06 86.4987 162.516 86.7559 161.885 86.9316C161.253 87.1074 160.547 87.1953 159.766 87.1953C159.062 87.1953 158.369 87.1042 157.686 86.9219C157.002 86.7331 156.38 86.4499 155.82 86.0723C155.267 85.6947 154.824 85.2129 154.492 84.627C154.16 84.041 153.994 83.3477 153.994 82.5469H156.934C156.934 82.9896 157.002 83.3639 157.139 83.6699C157.275 83.9759 157.467 84.2233 157.715 84.4121C157.969 84.6009 158.268 84.7376 158.613 84.8223C158.965 84.9069 159.349 84.9492 159.766 84.9492C160.273 84.9492 160.69 84.8776 161.016 84.7344C161.348 84.5911 161.592 84.3926 161.748 84.1387C161.911 83.8848 161.992 83.5983 161.992 83.2793ZM173.271 72.7812V87H170.352V72.7812H173.271ZM177.646 72.7812V75.0762H166.045V72.7812H177.646ZM188.857 84.7148V87H181.289V84.7148H188.857ZM182.246 72.7812V87H179.316V72.7812H182.246ZM187.871 78.5723V80.7988H181.289V78.5723H187.871ZM188.848 72.7812V75.0762H181.289V72.7812H188.848Z" fill="white"/>
</g>
<defs>
<filter id="filter0_i_28_141" x="38.8398" y="40.9727" width="119.727" height="22.2227" filterUnits="userSpaceOnUse" color-interpolation-filters="sRGB">
<feFlood flood-opacity="0" result="BackgroundImageFix"/>
<feBlend mode="normal" in="SourceGraphic" in2="BackgroundImageFix" result="shape"/>
<feColorMatrix in="SourceAlpha" type="matrix" values="0 0 0 0 0 0 0 0 0 0 0 0 0 0 0 0 0 0 127 0" result="hardAlpha"/>
<feOffset dy="4"/>
<feGaussianBlur stdDeviation="2"/>
<feComposite in2="hardAlpha" operator="arithmetic" k2="-1" k3="1"/>
<feColorMatrix type="matrix" values="0 0 0 0 0 0 0 0 0 0 0 0 0 0 0 0 0 0 0.25 0"/>
<feBlend mode="normal" in2="shape" result="effect1_innerShadow_28_141"/>
</filter>
<filter id="filter1_i_28_141" x="0.839844" y="72.5762" width="188.018" height="18.6191" filterUnits="userSpaceOnUse" color-interpolation-filters="sRGB">
<feFlood flood-opacity="0" result="BackgroundImageFix"/>
<feBlend mode="normal" in="SourceGraphic" in2="BackgroundImageFix" result="shape"/>
<feColorMatrix in="SourceAlpha" type="matrix" values="0 0 0 0 0 0 0 0 0 0 0 0 0 0 0 0 0 0 127 0" result="hardAlpha"/>
<feOffset dy="4"/>
<feGaussianBlur stdDeviation="2"/>
<feComposite in2="hardAlpha" operator="arithmetic" k2="-1" k3="1"/>
<feColorMatrix type="matrix" values="0 0 0 0 0 0 0 0 0 0 0 0 0 0 0 0 0 0 0.25 0"/>
<feBlend mode="normal" in2="shape" result="effect1_innerShadow_28_141"/>
</filter>
</defs>
</svg>
